<svg width="941" height="267" viewBox="0 0 941 267" fill="none" xmlns="http://www.w3.org/2000/svg">
<ellipse cx="26.25" cy="141.5" rx="26.25" ry="25.5" fill="#D7EFF6"/>
<path d="M15.7517 158.029C15.75 157.647 15.75 146.423 15.75 146.031C15.75 141.825 17.9408 138.081 21.3486 135.677C23.4735 138.208 26.6582 139.819 30.2216 139.819C33.8137 139.819 37.0238 138.182 39.147 135.615C42.6056 138.015 44.8352 141.786 44.8335 146.029C44.8335 146.455 44.8335 157.713 44.8301 158.129" stroke="#0074A2" stroke-width="1.5" stroke-miterlimit="10" stroke-linecap="round" stroke-linejoin="round"/>
<path d="M30.2925 139.869C36.1797 139.869 40.9523 135.097 40.9523 129.21C40.9523 123.323 36.1797 118.55 30.2925 118.55C24.4053 118.55 19.6328 123.323 19.6328 129.21C19.6328 135.097 24.4053 139.869 30.2925 139.869Z" stroke="#0074A2" stroke-width="1.5" stroke-miterlimit="10" stroke-linecap="round" stroke-linejoin="round"/>
<circle cx="30" cy="137" r="26.25" stroke="#0074A2" stroke-width="1.5"/>
<path d="M685.02 97.0973H635.589C633.631 97.0973 632.044 95.511 632.044 93.5525V6.04473C632.044 4.08628 633.631 2.5 635.589 2.5H685.02C686.979 2.5 688.565 4.08628 688.565 6.04473V93.5525C688.565 95.508 686.979 97.0973 685.02 97.0973Z" fill="#D7EFF6"/>
<path d="M696.826 29.7078H625.175C619.568 29.7078 615.025 25.1625 615.025 19.5587C615.025 13.9548 619.568 9.40948 625.175 9.40948H696.826C702.43 9.40948 706.975 13.9518 706.975 19.5587C706.975 25.1625 702.43 29.7078 696.826 29.7078Z" stroke="#0074A2" stroke-width="1.5" stroke-miterlimit="10" stroke-linecap="round" stroke-linejoin="round"/>
<path d="M624.381 22.4841C625.682 22.4841 626.736 21.4297 626.736 20.1291C626.736 18.8285 625.682 17.7741 624.381 17.7741C623.081 17.7741 622.026 18.8285 622.026 20.1291C622.026 21.4297 623.081 22.4841 624.381 22.4841Z" fill="#0074A2"/>
<path d="M630.501 22.4841C631.801 22.4841 632.856 21.4297 632.856 20.1291C632.856 18.8285 631.801 17.7741 630.501 17.7741C629.2 17.7741 628.146 18.8285 628.146 20.1291C628.146 21.4297 629.2 22.4841 630.501 22.4841Z" fill="#0074A2"/>
<path d="M636.721 22.4841C638.021 22.4841 639.076 21.4297 639.076 20.1291C639.076 18.8285 638.021 17.7741 636.721 17.7741C635.42 17.7741 634.366 18.8285 634.366 20.1291C634.366 21.4297 635.42 22.4841 636.721 22.4841Z" fill="#0074A2"/>
<path d="M699.464 19.5587C699.464 19.5587 695.258 19.5587 690.069 19.5587C684.88 19.5587 680.673 19.5587 680.673 19.5587C680.673 19.5587 684.88 19.5587 690.069 19.5587C695.258 19.5587 699.464 19.5587 699.464 19.5587Z" stroke="#0074A2" stroke-width="1.5" stroke-miterlimit="10" stroke-linecap="round" stroke-linejoin="round"/>
<path d="M696.826 60.6432H625.175C619.568 60.6432 615.025 56.1009 615.025 50.4942C615.025 44.8902 619.568 40.3449 625.175 40.3449H696.826C702.43 40.3449 706.975 44.8872 706.975 50.4942C706.975 56.1009 702.43 60.6432 696.826 60.6432Z" stroke="#0074A2" stroke-width="1.5" stroke-miterlimit="10" stroke-linecap="round" stroke-linejoin="round"/>
<path d="M624.381 52.8493C625.682 52.8493 626.736 51.7948 626.736 50.4943C626.736 49.1936 625.682 48.1393 624.381 48.1393C623.081 48.1393 622.026 49.1936 622.026 50.4943C622.026 51.7948 623.081 52.8493 624.381 52.8493Z" fill="#0074A2"/>
<path d="M630.501 52.8493C631.801 52.8493 632.856 51.7948 632.856 50.4943C632.856 49.1936 631.801 48.1393 630.501 48.1393C629.2 48.1393 628.146 49.1936 628.146 50.4943C628.146 51.7948 629.2 52.8493 630.501 52.8493Z" fill="#0074A2"/>
<path d="M636.721 52.8493C638.021 52.8493 639.076 51.7948 639.076 50.4943C639.076 49.1936 638.021 48.1393 636.721 48.1393C635.42 48.1393 634.366 49.1936 634.366 50.4943C634.366 51.7948 635.42 52.8493 636.721 52.8493Z" fill="#0074A2"/>
<path d="M699.464 50.4943C699.464 50.4943 695.258 50.4943 690.069 50.4943C684.88 50.4943 680.673 50.4943 680.673 50.4943C680.673 50.4943 684.88 50.4943 690.069 50.4943C695.258 50.4943 699.464 50.4943 699.464 50.4943Z" stroke="#0074A2" stroke-width="1.5" stroke-miterlimit="10" stroke-linecap="round" stroke-linejoin="round"/>
<path d="M696.826 90.9718H625.175C619.568 90.9718 615.025 86.4265 615.025 80.8228C615.025 75.2188 619.568 70.6735 625.175 70.6735H696.826C702.43 70.6735 706.975 75.2158 706.975 80.8228C706.975 86.4265 702.43 90.9718 696.826 90.9718Z" stroke="#0074A2" stroke-width="1.5" stroke-miterlimit="10" stroke-linecap="round" stroke-linejoin="round"/>
<path d="M624.381 83.1777C625.682 83.1777 626.736 82.1232 626.736 80.8227C626.736 79.522 625.682 78.4677 624.381 78.4677C623.081 78.4677 622.026 79.522 622.026 80.8227C622.026 82.1232 623.081 83.1777 624.381 83.1777Z" fill="#0074A2"/>
<path d="M630.501 83.1777C631.801 83.1777 632.856 82.1232 632.856 80.8227C632.856 79.522 631.801 78.4677 630.501 78.4677C629.2 78.4677 628.146 79.522 628.146 80.8227C628.146 82.1232 629.2 83.1777 630.501 83.1777Z" fill="#0074A2"/>
<path d="M636.721 83.1777C638.021 83.1777 639.076 82.1232 639.076 80.8227C639.076 79.522 638.021 78.4677 636.721 78.4677C635.42 78.4677 634.366 79.522 634.366 80.8227C634.366 82.1232 635.42 83.1777 636.721 83.1777Z" fill="#0074A2"/>
<path d="M699.464 80.8228C699.464 80.8228 695.258 80.8228 690.069 80.8228C684.88 80.8228 680.673 80.8228 680.673 80.8228C680.673 80.8228 684.88 80.8228 690.069 80.8228C695.258 80.8228 699.464 80.8228 699.464 80.8228Z" stroke="#0074A2" stroke-width="1.5" stroke-miterlimit="10" stroke-linecap="round" stroke-linejoin="round"/>
<path d="M628.146 35.1288H690.069" stroke="#0074A2" stroke-width="1.5" stroke-miterlimit="10" stroke-linecap="round" stroke-linejoin="round"/>
<path d="M628.146 65.6585H690.069" stroke="#0074A2" stroke-width="1.5" stroke-miterlimit="10" stroke-linecap="round" stroke-linejoin="round"/>
<path d="M915.02 97.0973H865.589C863.631 97.0973 862.044 95.511 862.044 93.5525V6.04473C862.044 4.08628 863.631 2.5 865.589 2.5H915.02C916.979 2.5 918.565 4.08628 918.565 6.04473V93.5525C918.565 95.508 916.979 97.0973 915.02 97.0973Z" fill="#D7EFF6"/>
<path d="M926.826 29.7078H855.175C849.568 29.7078 845.025 25.1625 845.025 19.5587C845.025 13.9548 849.568 9.40948 855.175 9.40948H926.826C932.43 9.40948 936.975 13.9518 936.975 19.5587C936.975 25.1625 932.43 29.7078 926.826 29.7078Z" stroke="#0074A2" stroke-width="1.5" stroke-miterlimit="10" stroke-linecap="round" stroke-linejoin="round"/>
<path d="M854.381 22.4841C855.682 22.4841 856.736 21.4297 856.736 20.1291C856.736 18.8285 855.682 17.7741 854.381 17.7741C853.081 17.7741 852.026 18.8285 852.026 20.1291C852.026 21.4297 853.081 22.4841 854.381 22.4841Z" fill="#0074A2"/>
<path d="M860.501 22.4841C861.801 22.4841 862.856 21.4297 862.856 20.1291C862.856 18.8285 861.801 17.7741 860.501 17.7741C859.2 17.7741 858.146 18.8285 858.146 20.1291C858.146 21.4297 859.2 22.4841 860.501 22.4841Z" fill="#0074A2"/>
<path d="M866.721 22.4841C868.021 22.4841 869.076 21.4297 869.076 20.1291C869.076 18.8285 868.021 17.7741 866.721 17.7741C865.42 17.7741 864.366 18.8285 864.366 20.1291C864.366 21.4297 865.42 22.4841 866.721 22.4841Z" fill="#0074A2"/>
<path d="M929.464 19.5587C929.464 19.5587 925.258 19.5587 920.069 19.5587C914.88 19.5587 910.673 19.5587 910.673 19.5587C910.673 19.5587 914.88 19.5587 920.069 19.5587C925.258 19.5587 929.464 19.5587 929.464 19.5587Z" stroke="#0074A2" stroke-width="1.5" stroke-miterlimit="10" stroke-linecap="round" stroke-linejoin="round"/>
<path d="M926.826 60.6432H855.175C849.568 60.6432 845.025 56.1009 845.025 50.4942C845.025 44.8902 849.568 40.3449 855.175 40.3449H926.826C932.43 40.3449 936.975 44.8872 936.975 50.4942C936.975 56.1009 932.43 60.6432 926.826 60.6432Z" stroke="#0074A2" stroke-width="1.5" stroke-miterlimit="10" stroke-linecap="round" stroke-linejoin="round"/>
<path d="M854.381 52.8493C855.682 52.8493 856.736 51.7948 856.736 50.4943C856.736 49.1936 855.682 48.1393 854.381 48.1393C853.081 48.1393 852.026 49.1936 852.026 50.4943C852.026 51.7948 853.081 52.8493 854.381 52.8493Z" fill="#0074A2"/>
<path d="M860.501 52.8493C861.801 52.8493 862.856 51.7948 862.856 50.4943C862.856 49.1936 861.801 48.1393 860.501 48.1393C859.2 48.1393 858.146 49.1936 858.146 50.4943C858.146 51.7948 859.2 52.8493 860.501 52.8493Z" fill="#0074A2"/>
<path d="M866.721 52.8493C868.021 52.8493 869.076 51.7948 869.076 50.4943C869.076 49.1936 868.021 48.1393 866.721 48.1393C865.42 48.1393 864.366 49.1936 864.366 50.4943C864.366 51.7948 865.42 52.8493 866.721 52.8493Z" fill="#0074A2"/>
<path d="M929.464 50.4943C929.464 50.4943 925.258 50.4943 920.069 50.4943C914.88 50.4943 910.673 50.4943 910.673 50.4943C910.673 50.4943 914.88 50.4943 920.069 50.4943C925.258 50.4943 929.464 50.4943 929.464 50.4943Z" stroke="#0074A2" stroke-width="1.5" stroke-miterlimit="10" stroke-linecap="round" stroke-linejoin="round"/>
<path d="M926.826 90.9718H855.175C849.568 90.9718 845.025 86.4265 845.025 80.8228C845.025 75.2188 849.568 70.6735 855.175 70.6735H926.826C932.43 70.6735 936.975 75.2158 936.975 80.8228C936.975 86.4265 932.43 90.9718 926.826 90.9718Z" stroke="#0074A2" stroke-width="1.5" stroke-miterlimit="10" stroke-linecap="round" stroke-linejoin="round"/>
<path d="M854.381 83.1777C855.682 83.1777 856.736 82.1232 856.736 80.8227C856.736 79.522 855.682 78.4677 854.381 78.4677C853.081 78.4677 852.026 79.522 852.026 80.8227C852.026 82.1232 853.081 83.1777 854.381 83.1777Z" fill="#0074A2"/>
<path d="M860.501 83.1777C861.801 83.1777 862.856 82.1232 862.856 80.8227C862.856 79.522 861.801 78.4677 860.501 78.4677C859.2 78.4677 858.146 79.522 858.146 80.8227C858.146 82.1232 859.2 83.1777 860.501 83.1777Z" fill="#0074A2"/>
<path d="M866.721 83.1777C868.021 83.1777 869.076 82.1232 869.076 80.8227C869.076 79.522 868.021 78.4677 866.721 78.4677C865.42 78.4677 864.366 79.522 864.366 80.8227C864.366 82.1232 865.42 83.1777 866.721 83.1777Z" fill="#0074A2"/>
<path d="M929.464 80.8228C929.464 80.8228 925.258 80.8228 920.069 80.8228C914.88 80.8228 910.673 80.8228 910.673 80.8228C910.673 80.8228 914.88 80.8228 920.069 80.8228C925.258 80.8228 929.464 80.8228 929.464 80.8228Z" stroke="#0074A2" stroke-width="1.5" stroke-miterlimit="10" stroke-linecap="round" stroke-linejoin="round"/>
<path d="M858.146 35.1288H920.069" stroke="#0074A2" stroke-width="1.5" stroke-miterlimit="10" stroke-linecap="round" stroke-linejoin="round"/>
<path d="M858.146 65.6585H920.069" stroke="#0074A2" stroke-width="1.5" stroke-miterlimit="10" stroke-linecap="round" stroke-linejoin="round"/>
<path d="M685.02 264.097H635.589C633.631 264.097 632.044 262.511 632.044 260.553V173.045C632.044 171.086 633.631 169.5 635.589 169.5H685.02C686.979 169.5 688.565 171.086 688.565 173.045V260.553C688.565 262.508 686.979 264.097 685.02 264.097Z" fill="#D7EFF6"/>
<path d="M696.826 196.708H625.175C619.568 196.708 615.025 192.163 615.025 186.559C615.025 180.955 619.568 176.409 625.175 176.409H696.826C702.43 176.409 706.975 180.952 706.975 186.559C706.975 192.163 702.43 196.708 696.826 196.708Z" stroke="#0074A2" stroke-width="1.5" stroke-miterlimit="10" stroke-linecap="round" stroke-linejoin="round"/>
<path d="M624.381 189.484C625.682 189.484 626.736 188.43 626.736 187.129C626.736 185.828 625.682 184.774 624.381 184.774C623.081 184.774 622.026 185.828 622.026 187.129C622.026 188.43 623.081 189.484 624.381 189.484Z" fill="#0074A2"/>
<path d="M630.501 189.484C631.801 189.484 632.856 188.43 632.856 187.129C632.856 185.828 631.801 184.774 630.501 184.774C629.2 184.774 628.146 185.828 628.146 187.129C628.146 188.43 629.2 189.484 630.501 189.484Z" fill="#0074A2"/>
<path d="M636.721 189.484C638.021 189.484 639.076 188.43 639.076 187.129C639.076 185.828 638.021 184.774 636.721 184.774C635.42 184.774 634.366 185.828 634.366 187.129C634.366 188.43 635.42 189.484 636.721 189.484Z" fill="#0074A2"/>
<path d="M699.464 186.559C699.464 186.559 695.258 186.559 690.069 186.559C684.88 186.559 680.673 186.559 680.673 186.559C680.673 186.559 684.88 186.559 690.069 186.559C695.258 186.559 699.464 186.559 699.464 186.559Z" stroke="#0074A2" stroke-width="1.5" stroke-miterlimit="10" stroke-linecap="round" stroke-linejoin="round"/>
<path d="M696.826 227.643H625.175C619.568 227.643 615.025 223.101 615.025 217.494C615.025 211.89 619.568 207.345 625.175 207.345H696.826C702.43 207.345 706.975 211.887 706.975 217.494C706.975 223.101 702.43 227.643 696.826 227.643Z" stroke="#0074A2" stroke-width="1.5" stroke-miterlimit="10" stroke-linecap="round" stroke-linejoin="round"/>
<path d="M624.381 219.849C625.682 219.849 626.736 218.795 626.736 217.494C626.736 216.194 625.682 215.139 624.381 215.139C623.081 215.139 622.026 216.194 622.026 217.494C622.026 218.795 623.081 219.849 624.381 219.849Z" fill="#0074A2"/>
<path d="M630.501 219.849C631.801 219.849 632.856 218.795 632.856 217.494C632.856 216.194 631.801 215.139 630.501 215.139C629.2 215.139 628.146 216.194 628.146 217.494C628.146 218.795 629.2 219.849 630.501 219.849Z" fill="#0074A2"/>
<path d="M636.721 219.849C638.021 219.849 639.076 218.795 639.076 217.494C639.076 216.194 638.021 215.139 636.721 215.139C635.42 215.139 634.366 216.194 634.366 217.494C634.366 218.795 635.42 219.849 636.721 219.849Z" fill="#0074A2"/>
<path d="M699.464 217.494C699.464 217.494 695.258 217.494 690.069 217.494C684.88 217.494 680.673 217.494 680.673 217.494C680.673 217.494 684.88 217.494 690.069 217.494C695.258 217.494 699.464 217.494 699.464 217.494Z" stroke="#0074A2" stroke-width="1.5" stroke-miterlimit="10" stroke-linecap="round" stroke-linejoin="round"/>
<path d="M696.826 257.972H625.175C619.568 257.972 615.025 253.427 615.025 247.823C615.025 242.219 619.568 237.674 625.175 237.674H696.826C702.43 237.674 706.975 242.216 706.975 247.823C706.975 253.427 702.43 257.972 696.826 257.972Z" stroke="#0074A2" stroke-width="1.5" stroke-miterlimit="10" stroke-linecap="round" stroke-linejoin="round"/>
<path d="M624.381 250.178C625.682 250.178 626.736 249.123 626.736 247.823C626.736 246.522 625.682 245.468 624.381 245.468C623.081 245.468 622.026 246.522 622.026 247.823C622.026 249.123 623.081 250.178 624.381 250.178Z" fill="#0074A2"/>
<path d="M630.501 250.178C631.801 250.178 632.856 249.123 632.856 247.823C632.856 246.522 631.801 245.468 630.501 245.468C629.2 245.468 628.146 246.522 628.146 247.823C628.146 249.123 629.2 250.178 630.501 250.178Z" fill="#0074A2"/>
<path d="M636.721 250.178C638.021 250.178 639.076 249.123 639.076 247.823C639.076 246.522 638.021 245.468 636.721 245.468C635.42 245.468 634.366 246.522 634.366 247.823C634.366 249.123 635.42 250.178 636.721 250.178Z" fill="#0074A2"/>
<path d="M699.464 247.823C699.464 247.823 695.258 247.823 690.069 247.823C684.88 247.823 680.673 247.823 680.673 247.823C680.673 247.823 684.88 247.823 690.069 247.823C695.258 247.823 699.464 247.823 699.464 247.823Z" stroke="#0074A2" stroke-width="1.5" stroke-miterlimit="10" stroke-linecap="round" stroke-linejoin="round"/>
<path d="M628.146 202.129H690.069" stroke="#0074A2" stroke-width="1.5" stroke-miterlimit="10" stroke-linecap="round" stroke-linejoin="round"/>
<path d="M628.146 232.659H690.069" stroke="#0074A2" stroke-width="1.5" stroke-miterlimit="10" stroke-linecap="round" stroke-linejoin="round"/>
<path d="M915.02 264.097H865.589C863.631 264.097 862.044 262.511 862.044 260.553V173.045C862.044 171.086 863.631 169.5 865.589 169.5H915.02C916.979 169.5 918.565 171.086 918.565 173.045V260.553C918.565 262.508 916.979 264.097 915.02 264.097Z" fill="#D7EFF6"/>
<path d="M926.826 196.708H855.175C849.568 196.708 845.025 192.163 845.025 186.559C845.025 180.955 849.568 176.409 855.175 176.409H926.826C932.43 176.409 936.975 180.952 936.975 186.559C936.975 192.163 932.43 196.708 926.826 196.708Z" stroke="#0074A2" stroke-width="1.5" stroke-miterlimit="10" stroke-linecap="round" stroke-linejoin="round"/>
<path d="M854.381 189.484C855.682 189.484 856.736 188.43 856.736 187.129C856.736 185.828 855.682 184.774 854.381 184.774C853.081 184.774 852.026 185.828 852.026 187.129C852.026 188.43 853.081 189.484 854.381 189.484Z" fill="#0074A2"/>
<path d="M860.501 189.484C861.801 189.484 862.856 188.43 862.856 187.129C862.856 185.828 861.801 184.774 860.501 184.774C859.2 184.774 858.146 185.828 858.146 187.129C858.146 188.43 859.2 189.484 860.501 189.484Z" fill="#0074A2"/>
<path d="M866.721 189.484C868.021 189.484 869.076 188.43 869.076 187.129C869.076 185.828 868.021 184.774 866.721 184.774C865.42 184.774 864.366 185.828 864.366 187.129C864.366 188.43 865.42 189.484 866.721 189.484Z" fill="#0074A2"/>
<path d="M929.464 186.559C929.464 186.559 925.258 186.559 920.069 186.559C914.88 186.559 910.673 186.559 910.673 186.559C910.673 186.559 914.88 186.559 920.069 186.559C925.258 186.559 929.464 186.559 929.464 186.559Z" stroke="#0074A2" stroke-width="1.5" stroke-miterlimit="10" stroke-linecap="round" stroke-linejoin="round"/>
<path d="M926.826 227.643H855.175C849.568 227.643 845.025 223.101 845.025 217.494C845.025 211.89 849.568 207.345 855.175 207.345H926.826C932.43 207.345 936.975 211.887 936.975 217.494C936.975 223.101 932.43 227.643 926.826 227.643Z" stroke="#0074A2" stroke-width="1.5" stroke-miterlimit="10" stroke-linecap="round" stroke-linejoin="round"/>
<path d="M854.381 219.849C855.682 219.849 856.736 218.795 856.736 217.494C856.736 216.194 855.682 215.139 854.381 215.139C853.081 215.139 852.026 216.194 852.026 217.494C852.026 218.795 853.081 219.849 854.381 219.849Z" fill="#0074A2"/>
<path d="M860.501 219.849C861.801 219.849 862.856 218.795 862.856 217.494C862.856 216.194 861.801 215.139 860.501 215.139C859.2 215.139 858.146 216.194 858.146 217.494C858.146 218.795 859.2 219.849 860.501 219.849Z" fill="#0074A2"/>
<path d="M866.721 219.849C868.021 219.849 869.076 218.795 869.076 217.494C869.076 216.194 868.021 215.139 866.721 215.139C865.42 215.139 864.366 216.194 864.366 217.494C864.366 218.795 865.42 219.849 866.721 219.849Z" fill="#0074A2"/>
<path d="M929.464 217.494C929.464 217.494 925.258 217.494 920.069 217.494C914.88 217.494 910.673 217.494 910.673 217.494C910.673 217.494 914.88 217.494 920.069 217.494C925.258 217.494 929.464 217.494 929.464 217.494Z" stroke="#0074A2" stroke-width="1.5" stroke-miterlimit="10" stroke-linecap="round" stroke-linejoin="round"/>
<path d="M926.826 257.972H855.175C849.568 257.972 845.025 253.427 845.025 247.823C845.025 242.219 849.568 237.674 855.175 237.674H926.826C932.43 237.674 936.975 242.216 936.975 247.823C936.975 253.427 932.43 257.972 926.826 257.972Z" stroke="#0074A2" stroke-width="1.5" stroke-miterlimit="10" stroke-linecap="round" stroke-linejoin="round"/>
<path d="M854.381 250.178C855.682 250.178 856.736 249.123 856.736 247.823C856.736 246.522 855.682 245.468 854.381 245.468C853.081 245.468 852.026 246.522 852.026 247.823C852.026 249.123 853.081 250.178 854.381 250.178Z" fill="#0074A2"/>
<path d="M860.501 250.178C861.801 250.178 862.856 249.123 862.856 247.823C862.856 246.522 861.801 245.468 860.501 245.468C859.2 245.468 858.146 246.522 858.146 247.823C858.146 249.123 859.2 250.178 860.501 250.178Z" fill="#0074A2"/>
<path d="M866.721 250.178C868.021 250.178 869.076 249.123 869.076 247.823C869.076 246.522 868.021 245.468 866.721 245.468C865.42 245.468 864.366 246.522 864.366 247.823C864.366 249.123 865.42 250.178 866.721 250.178Z" fill="#0074A2"/>
<path d="M929.464 247.823C929.464 247.823 925.258 247.823 920.069 247.823C914.88 247.823 910.673 247.823 910.673 247.823C910.673 247.823 914.88 247.823 920.069 247.823C925.258 247.823 929.464 247.823 929.464 247.823Z" stroke="#0074A2" stroke-width="1.5" stroke-miterlimit="10" stroke-linecap="round" stroke-linejoin="round"/>
<path d="M858.146 202.129H920.069" stroke="#0074A2" stroke-width="1.5" stroke-miterlimit="10" stroke-linecap="round" stroke-linejoin="round"/>
<path d="M858.146 232.659H920.069" stroke="#0074A2" stroke-width="1.5" stroke-miterlimit="10" stroke-linecap="round" stroke-linejoin="round"/>
<path fill-rule="evenodd" clip-rule="evenodd" d="M152.695 153.444H73.549C71.3127 153.444 69.5 151.631 69.5 149.394V110.377C69.5 108.141 71.3127 106.328 73.549 106.328H152.695C154.931 106.328 156.744 108.141 156.744 110.377V149.394C156.744 151.631 154.931 153.444 152.695 153.444Z" fill="#D7EFF6"/>
<path fill-rule="evenodd" clip-rule="evenodd" d="M80.2684 101.529C79.2748 101.529 78.4541 102.35 78.4541 103.343V157.557C78.4541 158.551 79.2748 159.372 80.2684 159.372H160.511C161.505 159.372 162.325 158.551 162.325 157.557V103.343C162.325 102.35 161.505 101.529 160.511 101.529H80.2684ZM74.7041 103.343C74.7041 100.278 77.2038 97.7788 80.2684 97.7788H160.511C163.576 97.7788 166.075 100.278 166.075 103.343V157.557C166.075 160.622 163.576 163.122 160.511 163.122H80.2684C77.2038 163.122 74.7041 160.622 74.7041 157.557V103.343Z" fill="#0074A2"/>
<path fill-rule="evenodd" clip-rule="evenodd" d="M99.0435 176.471C99.0435 175.436 99.8829 174.596 100.918 174.596H139.861C140.897 174.596 141.736 175.436 141.736 176.471C141.736 177.507 140.897 178.346 139.861 178.346H100.918C99.8829 178.346 99.0435 177.507 99.0435 176.471Z" fill="#0074A2"/>
<path fill-rule="evenodd" clip-rule="evenodd" d="M130.13 159.372C131.165 159.372 132.005 160.211 132.005 161.247V176.472C132.005 177.507 131.165 178.347 130.13 178.347C129.094 178.347 128.255 177.507 128.255 176.472V161.247C128.255 160.211 129.094 159.372 130.13 159.372Z" fill="#0074A2"/>
<path fill-rule="evenodd" clip-rule="evenodd" d="M110.556 159.372C111.592 159.372 112.431 160.211 112.431 161.247V176.472C112.431 177.507 111.592 178.347 110.556 178.347C109.521 178.347 108.681 177.507 108.681 176.472V161.247C108.681 160.211 109.521 159.372 110.556 159.372Z" fill="#0074A2"/>
<path fill-rule="evenodd" clip-rule="evenodd" d="M74.7041 148.188C74.7041 147.153 75.5436 146.313 76.5791 146.313H164.2C165.236 146.313 166.075 147.153 166.075 148.188C166.075 149.224 165.236 150.063 164.2 150.063H76.5791C75.5436 150.063 74.7041 149.224 74.7041 148.188Z" fill="#0074A2"/>
<path d="M315.34 165.504H312.832V166.896C312.04 165.876 310.852 165.204 309.22 165.204C306.004 165.204 303.472 167.736 303.472 171.252C303.472 174.768 306.004 177.3 309.22 177.3C310.852 177.3 312.04 176.64 312.832 175.62V177H315.34V165.504ZM309.52 167.568C311.596 167.568 312.988 169.152 312.988 171.252C312.988 173.352 311.596 174.936 309.52 174.936C307.36 174.936 306.052 173.268 306.052 171.252C306.052 169.236 307.36 167.568 309.52 167.568ZM325.301 165.204C324.125 165.204 322.697 165.552 321.773 166.908V165.504H319.277V177H321.797V170.628C321.797 168.66 323.153 167.592 324.773 167.592C326.453 167.592 327.449 168.672 327.449 170.604V177H329.969V169.776C329.969 167.088 328.037 165.204 325.301 165.204ZM342.688 166.428C341.5 165.66 339.832 165.216 338.032 165.216C335.104 165.216 333.28 166.62 333.28 168.9C333.28 170.748 334.636 171.924 337.18 172.272L338.38 172.428C339.748 172.62 340.372 173.052 340.372 173.7C340.372 174.564 339.472 175.104 337.756 175.104C335.884 175.104 334.792 174.564 333.964 173.928L332.8 175.812C334.48 177.06 336.544 177.288 337.732 177.288C341.044 177.288 342.964 175.74 342.964 173.532C342.964 171.564 341.476 170.496 338.968 170.136L337.78 169.956C336.724 169.8 335.884 169.572 335.884 168.768C335.884 167.952 336.688 167.4 338.056 167.4C339.484 167.4 340.912 167.952 341.608 168.384L342.688 166.428ZM348.445 165.504H345.925V177H348.445V165.504ZM347.173 159.756C346.177 159.756 345.421 160.536 345.421 161.532C345.421 162.528 346.177 163.284 347.173 163.284C348.169 163.284 348.949 162.528 348.949 161.532C348.949 160.536 348.169 159.756 347.173 159.756ZM358.478 165.204C356.846 165.204 355.67 165.864 354.878 166.872V159.72H352.37V177H354.878V175.632C355.67 176.64 356.846 177.3 358.478 177.3C361.694 177.3 364.226 174.768 364.226 171.252C364.226 167.736 361.694 165.204 358.478 165.204ZM358.178 167.568C360.338 167.568 361.646 169.236 361.646 171.252C361.646 173.268 360.338 174.936 358.178 174.936C356.102 174.936 354.71 173.352 354.71 171.252C354.71 169.152 356.102 167.568 358.178 167.568ZM369.843 159.72H367.323V177H369.843V159.72ZM378.665 165.204C375.281 165.204 372.941 167.652 372.941 171.252C372.941 174.9 375.377 177.3 378.821 177.3C380.561 177.3 382.145 176.88 383.549 175.68L382.301 173.892C381.353 174.648 380.129 175.104 378.977 175.104C377.345 175.104 375.893 174.24 375.557 172.176H384.053C384.077 171.888 384.101 171.564 384.101 171.24C384.089 167.652 381.881 165.204 378.665 165.204ZM378.617 167.436C380.213 167.436 381.257 168.48 381.533 170.268H375.569C375.833 168.588 376.829 167.436 378.617 167.436ZM398.887 165.204C395.227 165.204 392.839 167.808 392.839 171.252C392.839 174.696 395.227 177.3 398.887 177.3C400.603 177.3 402.139 176.676 403.183 175.464L401.635 173.736C400.903 174.42 399.919 174.936 398.815 174.936C396.883 174.936 395.419 173.424 395.419 171.252C395.419 169.08 396.883 167.568 398.815 167.568C399.919 167.568 400.771 168 401.575 168.756L403.183 167.04C402.163 165.828 400.603 165.204 398.887 165.204ZM411.113 165.204C407.561 165.204 404.933 167.808 404.933 171.252C404.933 174.696 407.561 177.3 411.113 177.3C414.665 177.3 417.305 174.696 417.305 171.252C417.305 167.808 414.665 165.204 411.113 165.204ZM411.113 167.568C413.165 167.568 414.725 169.08 414.725 171.252C414.725 173.424 413.165 174.936 411.113 174.936C409.061 174.936 407.513 173.424 407.513 171.252C407.513 169.08 409.061 167.568 411.113 167.568ZM426.433 165.204C425.257 165.204 423.829 165.552 422.905 166.908V165.504H420.409V177H422.929V170.628C422.929 168.66 424.285 167.592 425.905 167.592C427.585 167.592 428.581 168.672 428.581 170.604V177H431.101V169.776C431.101 167.088 429.169 165.204 426.433 165.204ZM442.636 165.504H438.232V162.024H435.712V165.504H433.42V167.784H435.712V172.836C435.712 175.896 437.236 177.3 439.84 177.3C441.28 177.3 442.444 176.784 443.368 176.16L442.372 174.156C441.688 174.588 440.836 174.936 440.056 174.936C439.048 174.936 438.232 174.336 438.232 172.788V167.784H442.636V165.504ZM451.518 165.204C450.114 165.204 448.938 165.708 448.182 166.8V165.504H445.698V177H448.206V170.676C448.206 168.72 449.346 167.592 450.942 167.592C451.554 167.592 452.322 167.736 452.85 168.012L453.45 165.528C452.874 165.3 452.286 165.204 451.518 165.204ZM460.894 165.204C457.342 165.204 454.714 167.808 454.714 171.252C454.714 174.696 457.342 177.3 460.894 177.3C464.446 177.3 467.086 174.696 467.086 171.252C467.086 167.808 464.446 165.204 460.894 165.204ZM460.894 167.568C462.946 167.568 464.506 169.08 464.506 171.252C464.506 173.424 462.946 174.936 460.894 174.936C458.842 174.936 457.294 173.424 457.294 171.252C457.294 169.08 458.842 167.568 460.894 167.568ZM472.711 159.72H470.191V177H472.711V159.72ZM367.711 195.204C366.535 195.204 365.107 195.552 364.183 196.908V195.504H361.687V207H364.207V200.628C364.207 198.66 365.563 197.592 367.183 197.592C368.863 197.592 369.859 198.672 369.859 200.604V207H372.379V199.776C372.379 197.088 370.447 195.204 367.711 195.204ZM381.547 195.204C377.995 195.204 375.367 197.808 375.367 201.252C375.367 204.696 377.995 207.3 381.547 207.3C385.099 207.3 387.739 204.696 387.739 201.252C387.739 197.808 385.099 195.204 381.547 195.204ZM381.547 197.568C383.599 197.568 385.159 199.08 385.159 201.252C385.159 203.424 383.599 204.936 381.547 204.936C379.495 204.936 377.947 203.424 377.947 201.252C377.947 199.08 379.495 197.568 381.547 197.568ZM395.763 195.204C392.547 195.204 390.015 197.736 390.015 201.252C390.015 204.768 392.547 207.3 395.763 207.3C397.395 207.3 398.583 206.64 399.375 205.62V207H401.883V189.72H399.375V196.896C398.583 195.876 397.395 195.204 395.763 195.204ZM396.063 197.568C398.139 197.568 399.531 199.152 399.531 201.252C399.531 203.352 398.139 204.936 396.063 204.936C393.903 204.936 392.595 203.268 392.595 201.252C392.595 199.236 393.903 197.568 396.063 197.568ZM410.716 195.204C407.332 195.204 404.992 197.652 404.992 201.252C404.992 204.9 407.428 207.3 410.872 207.3C412.612 207.3 414.196 206.88 415.6 205.68L414.352 203.892C413.404 204.648 412.18 205.104 411.028 205.104C409.396 205.104 407.944 204.24 407.608 202.176H416.104C416.128 201.888 416.152 201.564 416.152 201.24C416.14 197.652 413.932 195.204 410.716 195.204ZM410.668 197.436C412.264 197.436 413.308 198.48 413.584 200.268H407.62C407.884 198.588 408.88 197.436 410.668 197.436Z" fill="#173361"/>
<path d="M438.953 102.948C438.953 130.47 416.644 152.779 389.122 152.779C361.603 152.779 339.292 130.47 339.292 102.948C339.292 75.4289 361.603 53.118 389.122 53.118C416.644 53.118 438.953 75.4289 438.953 102.948Z" fill="#0074A2"/>
<path d="M389.961 83.5582L402.856 115.385L383.378 100.042L389.961 83.5582V83.5582ZM412.869 122.716L393.034 74.9812C392.467 73.6045 391.335 72.876 389.961 72.876C388.584 72.876 387.37 73.6045 386.803 74.9812L365.033 127.341H372.48L381.098 105.753L406.817 126.53C407.851 127.366 408.597 127.745 409.567 127.745C411.51 127.745 413.209 126.288 413.209 124.186C413.209 123.843 413.088 123.3 412.869 122.716L412.869 122.716Z" fill="white"/>
<rect x="299" y="47" width="180" height="180" rx="9" stroke="#173361" stroke-width="2"/>
<path d="M70.4109 200.504H67.6509L64.0869 207.104L60.3909 200.504H57.5709L62.6709 209.636L58.5549 216.872H61.3389L70.4109 200.504ZM77.6364 200.204C74.0844 200.204 71.4564 202.808 71.4564 206.252C71.4564 209.696 74.0844 212.3 77.6364 212.3C81.1884 212.3 83.8284 209.696 83.8284 206.252C83.8284 202.808 81.1884 200.204 77.6364 200.204ZM77.6364 202.568C79.6884 202.568 81.2484 204.08 81.2484 206.252C81.2484 208.424 79.6884 209.936 77.6364 209.936C75.5844 209.936 74.0364 208.424 74.0364 206.252C74.0364 204.08 75.5844 202.568 77.6364 202.568ZM97.4688 200.504H94.9488V206.9C94.9488 209.12 93.7128 209.936 92.1408 209.936C90.5688 209.936 89.3328 209.12 89.3328 206.9V200.504H86.8128V207.128C86.8128 210.788 89.4408 212.3 92.1408 212.3C94.8288 212.3 97.4688 210.788 97.4688 207.128V200.504ZM107.097 200.204C105.693 200.204 104.517 200.708 103.761 201.8V200.504H101.277V212H103.785V205.676C103.785 203.72 104.925 202.592 106.521 202.592C107.133 202.592 107.901 202.736 108.429 203.012L109.029 200.528C108.453 200.3 107.865 200.204 107.097 200.204ZM23.6751 230.504H20.8311L17.9991 239.24L15.2991 230.504H12.6231L16.4271 242H19.3791L22.2231 233.336L25.0671 242H28.0671L31.8711 230.504H29.2551L26.5431 239.288L23.6751 230.504ZM39.6091 230.204C36.0571 230.204 33.4291 232.808 33.4291 236.252C33.4291 239.696 36.0571 242.3 39.6091 242.3C43.1611 242.3 45.8011 239.696 45.8011 236.252C45.8011 232.808 43.1611 230.204 39.6091 230.204ZM39.6091 232.568C41.6611 232.568 43.2211 234.08 43.2211 236.252C43.2211 238.424 41.6611 239.936 39.6091 239.936C37.5571 239.936 36.0091 238.424 36.0091 236.252C36.0091 234.08 37.5571 232.568 39.6091 232.568ZM54.7255 230.204C53.3215 230.204 52.1455 230.708 51.3895 231.8V230.504H48.9055V242H51.4135V235.676C51.4135 233.72 52.5535 232.592 54.1495 232.592C54.7615 232.592 55.5295 232.736 56.0575 233.012L56.6575 230.528C56.0815 230.3 55.4935 230.204 54.7255 230.204ZM61.738 224.72H59.218V242H61.738V237.152H62.986L66.814 242H69.994L65.134 235.916L69.946 230.504H66.79L62.998 234.872H61.738V224.72ZM81.1533 231.428C79.9653 230.66 78.2973 230.216 76.4973 230.216C73.5693 230.216 71.7453 231.62 71.7453 233.9C71.7453 235.748 73.1013 236.924 75.6453 237.272L76.8453 237.428C78.2133 237.62 78.8373 238.052 78.8373 238.7C78.8373 239.564 77.9373 240.104 76.2213 240.104C74.3493 240.104 73.2573 239.564 72.4293 238.928L71.2653 240.812C72.9453 242.06 75.0093 242.288 76.1973 242.288C79.5093 242.288 81.4293 240.74 81.4293 238.532C81.4293 236.564 79.9413 235.496 77.4333 235.136L76.2453 234.956C75.1893 234.8 74.3493 234.572 74.3493 233.768C74.3493 232.952 75.1533 232.4 76.5213 232.4C77.9493 232.4 79.3773 232.952 80.0733 233.384L81.1533 231.428ZM92.2259 230.504H87.8219V227.024H85.3019V230.504H83.0099V232.784H85.3019V237.836C85.3019 240.896 86.8259 242.3 89.4299 242.3C90.8699 242.3 92.0339 241.784 92.9579 241.16L91.9619 239.156C91.2779 239.588 90.4259 239.936 89.6459 239.936C88.6379 239.936 87.8219 239.336 87.8219 237.788V232.784H92.2259V230.504ZM106.328 230.504H103.82V231.896C103.028 230.876 101.84 230.204 100.208 230.204C96.9923 230.204 94.4603 232.736 94.4603 236.252C94.4603 239.768 96.9923 242.3 100.208 242.3C101.84 242.3 103.028 241.64 103.82 240.62V242H106.328V230.504ZM100.508 232.568C102.584 232.568 103.976 234.152 103.976 236.252C103.976 238.352 102.584 239.936 100.508 239.936C98.3483 239.936 97.0403 238.268 97.0403 236.252C97.0403 234.236 98.3483 232.568 100.508 232.568ZM118.101 230.504H113.697V227.024H111.177V230.504H108.885V232.784H111.177V237.836C111.177 240.896 112.701 242.3 115.305 242.3C116.745 242.3 117.909 241.784 118.833 241.16L117.837 239.156C117.153 239.588 116.301 239.936 115.521 239.936C114.513 239.936 113.697 239.336 113.697 237.788V232.784H118.101V230.504ZM123.683 230.504H121.163V242H123.683V230.504ZM122.411 224.756C121.415 224.756 120.659 225.536 120.659 226.532C120.659 227.528 121.415 228.284 122.411 228.284C123.407 228.284 124.187 227.528 124.187 226.532C124.187 225.536 123.407 224.756 122.411 224.756ZM132.961 230.204C129.409 230.204 126.781 232.808 126.781 236.252C126.781 239.696 129.409 242.3 132.961 242.3C136.513 242.3 139.153 239.696 139.153 236.252C139.153 232.808 136.513 230.204 132.961 230.204ZM132.961 232.568C135.013 232.568 136.573 234.08 136.573 236.252C136.573 238.424 135.013 239.936 132.961 239.936C130.909 239.936 129.361 238.424 129.361 236.252C129.361 234.08 130.909 232.568 132.961 232.568ZM148.281 230.204C147.105 230.204 145.677 230.552 144.753 231.908V230.504H142.257V242H144.777V235.628C144.777 233.66 146.133 232.592 147.753 232.592C149.433 232.592 150.429 233.672 150.429 235.604V242H152.949V234.776C152.949 232.088 151.017 230.204 148.281 230.204Z" fill="#173361"/>
<path d="M224.977 116.428C223.789 115.66 222.121 115.216 220.321 115.216C217.393 115.216 215.569 116.62 215.569 118.9C215.569 120.748 216.925 121.924 219.469 122.272L220.669 122.428C222.037 122.62 222.661 123.052 222.661 123.7C222.661 124.564 221.761 125.104 220.045 125.104C218.173 125.104 217.081 124.564 216.253 123.928L215.089 125.812C216.769 127.06 218.833 127.288 220.021 127.288C223.333 127.288 225.253 125.74 225.253 123.532C225.253 121.564 223.765 120.496 221.257 120.136L220.069 119.956C219.013 119.8 218.173 119.572 218.173 118.768C218.173 117.952 218.977 117.4 220.345 117.4C221.773 117.4 223.201 117.952 223.897 118.384L224.977 116.428ZM237.118 116.428C235.93 115.66 234.262 115.216 232.462 115.216C229.534 115.216 227.71 116.62 227.71 118.9C227.71 120.748 229.066 121.924 231.61 122.272L232.81 122.428C234.178 122.62 234.802 123.052 234.802 123.7C234.802 124.564 233.902 125.104 232.186 125.104C230.314 125.104 229.222 124.564 228.394 123.928L227.23 125.812C228.91 127.06 230.974 127.288 232.162 127.288C235.474 127.288 237.394 125.74 237.394 123.532C237.394 121.564 235.906 120.496 233.398 120.136L232.21 119.956C231.154 119.8 230.314 119.572 230.314 118.768C230.314 117.952 231.118 117.4 232.486 117.4C233.914 117.4 235.342 117.952 236.038 118.384L237.118 116.428ZM242.875 109.72H240.355V127H242.875V120.628C242.875 118.66 244.231 117.592 245.851 117.592C247.531 117.592 248.527 118.672 248.527 120.604V127H251.047V119.776C251.047 117.088 249.115 115.204 246.379 115.204C245.215 115.204 243.799 115.552 242.875 116.872V109.72Z" fill="#173361"/>
<path d="M503.977 120.428C502.789 119.66 501.121 119.216 499.321 119.216C496.393 119.216 494.569 120.62 494.569 122.9C494.569 124.748 495.925 125.924 498.469 126.272L499.669 126.428C501.037 126.62 501.661 127.052 501.661 127.7C501.661 128.564 500.761 129.104 499.045 129.104C497.173 129.104 496.081 128.564 495.253 127.928L494.089 129.812C495.769 131.06 497.833 131.288 499.021 131.288C502.333 131.288 504.253 129.74 504.253 127.532C504.253 125.564 502.765 124.496 500.257 124.136L499.069 123.956C498.013 123.8 497.173 123.572 497.173 122.768C497.173 121.952 497.977 121.4 499.345 121.4C500.773 121.4 502.201 121.952 502.897 122.384L503.977 120.428ZM516.118 120.428C514.93 119.66 513.262 119.216 511.462 119.216C508.534 119.216 506.71 120.62 506.71 122.9C506.71 124.748 508.066 125.924 510.61 126.272L511.81 126.428C513.178 126.62 513.802 127.052 513.802 127.7C513.802 128.564 512.902 129.104 511.186 129.104C509.314 129.104 508.222 128.564 507.394 127.928L506.23 129.812C507.91 131.06 509.974 131.288 511.162 131.288C514.474 131.288 516.394 129.74 516.394 127.532C516.394 125.564 514.906 124.496 512.398 124.136L511.21 123.956C510.154 123.8 509.314 123.572 509.314 122.768C509.314 121.952 510.118 121.4 511.486 121.4C512.914 121.4 514.342 121.952 515.038 122.384L516.118 120.428ZM521.875 113.72H519.355V131H521.875V124.628C521.875 122.66 523.231 121.592 524.851 121.592C526.531 121.592 527.527 122.672 527.527 124.604V131H530.047V123.776C530.047 121.088 528.115 119.204 525.379 119.204C524.215 119.204 522.799 119.552 521.875 120.872V113.72Z" fill="#173361"/>
<line x1="492.99" y1="134.505" x2="890.01" y2="134.505" stroke="#173361"/>
<path d="M661 167.004L663.887 162.004H658.113L661 167.004ZM661 97.9964L658.113 102.996H663.887L661 97.9964ZM661.5 162.504V102.496H660.5V162.504H661.5Z" fill="#173361"/>
<path d="M890.5 167.007L893.387 162.007H887.613L890.5 167.007ZM890.5 98L887.613 103H893.387L890.5 98ZM891 162.507V102.5H890V162.507H891Z" fill="#173361"/>
<path d="M285 135L270 126.34V143.66L285 135ZM183 136.5H271.5V133.5H183V136.5Z" fill="#173361"/>
</svg>
